<svg id="Layer_1" data-name="Layer 1" xmlns="http://www.w3.org/2000/svg" viewBox="0 0 100 100">
  <defs>
    <style>
      .cls-1 {
        fill: #5b5b5b;
      }
    </style>
  </defs>
  <title>com_comment</title>
  <g>
    <path class="cls-1" d="M70.58,16.83H29.42A17.19,17.19,0,0,0,12.25,34V49.17A17.19,17.19,0,0,0,29.42,66.33H54.25V81.17a2,2,0,0,0,3.52,1.3L71.53,66.31A17.19,17.19,0,0,0,87.75,49.17V34A17.18,17.18,0,0,0,70.58,16.83ZM83.75,49.17A13.18,13.18,0,0,1,70.58,62.33a2,2,0,0,0-1.52.7L58.25,75.73V64.33a2,2,0,0,0-2-2H29.42A13.18,13.18,0,0,1,16.25,49.17V34A13.18,13.18,0,0,1,29.42,20.83H70.58A13.18,13.18,0,0,1,83.75,34Z"/>
    <path class="cls-1" d="M67.49,32.17h-35a2,2,0,0,0,0,4h35a2,2,0,0,0,0-4Z"/>
    <path class="cls-1" d="M67.49,39.49h-35a2,2,0,0,0,0,4h35a2,2,0,0,0,0-4Z"/>
    <path class="cls-1" d="M67.49,47h-35a2,2,0,0,0,0,4h35a2,2,0,0,0,0-4Z"/>
  </g>
</svg>
