<svg id="Layer_1" data-name="Layer 1" xmlns="http://www.w3.org/2000/svg" viewBox="0 0 100 100">
  <defs>
    <style>
      .cls-1 {
        fill: #5b5b5b;
      }
    </style>
  </defs>
  <title>material_doitnow</title>
  <path class="cls-1" d="M77.08,40.54l3.44-5.65a6,6,0,0,0-2-8.24L61.41,16.25a6,6,0,0,0-8.25,2L50,23.42l-3.15-5.17a6,6,0,0,0-8.25-2L21.54,26.65a6,6,0,0,0-2,8.24l3.39,5.58-3.44,5.65a6,6,0,0,0,2,8.24l2.29,1.4v10.3a5.37,5.37,0,0,0,2.68,4.64L47.34,82.76a5.35,5.35,0,0,0,2.62.71h.11a5.35,5.35,0,0,0,2.62-.71L73.58,70.7a5.37,5.37,0,0,0,2.68-4.64V55.71l2.2-1.34a6,6,0,0,0,2-8.24ZM48,29.49v22L28.74,40.62Zm4,22.1V29.49L70.91,40.44Zm4.56-31.25a2,2,0,0,1,2.75-.67l17.1,10.4a2,2,0,0,1,.67,2.75l-3,4.87-20.78-12Zm-33.87,11a2,2,0,0,1,.9-1.24l17.09-10.4a2,2,0,0,1,2.75.67l3.23,5.31-20.8,12-2.94-4.83A2,2,0,0,1,22.71,31.3Zm0,18.41a2,2,0,0,1,.24-1.51l2.84-4.67L46.67,55.34l-3.25,5.35a2,2,0,0,1-2.75.67l-17.1-10.4A2,2,0,0,1,22.67,49.71Zm5.8,17.53a1.36,1.36,0,0,1-.68-1.17V58.2l10.8,6.57a6,6,0,0,0,3.11.88,6.06,6.06,0,0,0,1.43-.17,6,6,0,0,0,3.71-2.71l1.19-2V78.53Zm43.79-1.17a1.36,1.36,0,0,1-.68,1.17L52,78.53V61l1.1,1.81a6,6,0,0,0,3.71,2.71,6.06,6.06,0,0,0,1.43.17,6,6,0,0,0,3.11-.88l10.89-6.63Zm5-16.35a2,2,0,0,1-.9,1.24L59.29,61.35a2,2,0,0,1-2.75-.67l-3.19-5.24L74,43.24l3,5A2,2,0,0,1,77.29,49.71Z"/>
</svg>
