<svg id="Layer_1" data-name="Layer 1" xmlns="http://www.w3.org/2000/svg" viewBox="0 0 100 100">
  <defs>
    <style>
      .cls-1 {
        fill: #5b5b5b;
      }
    </style>
  </defs>
  <title>material_remember</title>
  <g>
    <path class="cls-1" d="M75,25A20.66,20.66,0,0,0,44.47,52.71l-3,3a6.34,6.34,0,0,0-7.3,1.18L20.76,70.29a6.33,6.33,0,0,0,8.95,8.95L43.08,65.88a6.34,6.34,0,0,0,1.18-7.3l3-3A20.67,20.67,0,0,0,75,25ZM26.88,76.41a2.4,2.4,0,0,1-3.29,0,2.34,2.34,0,0,1,0-3.29l6.68-6.68a1.35,1.35,0,0,1,1.07-.3,3,3,0,0,1,2.53,2.53,1.34,1.34,0,0,1-.3,1.07ZM40.25,63l-3,3a7,7,0,0,0-3.29-3.29l3-3A2.33,2.33,0,0,1,40.25,63Zm32-11.68a16.67,16.67,0,1,1,0-23.57A16.56,16.56,0,0,1,72.21,51.36Z"/>
    <path class="cls-1" d="M55.32,28.54a2,2,0,1,0,2.52,3.1,4,4,0,0,1,5.63.58,2,2,0,1,0,3.1-2.52A8,8,0,0,0,55.32,28.54Z"/>
  </g>
</svg>
