<svg id="Layer_1" data-name="Layer 1" xmlns="http://www.w3.org/2000/svg" viewBox="0 0 100 100">
  <defs>
    <style>
      .cls-1 {
        fill: #5b5b5b;
      }
    </style>
  </defs>
  <title>material_wrapup</title>
  <path class="cls-1" d="M79,21a11,11,0,0,0-15.61,0L59.79,24.6a5.73,5.73,0,0,0-8,8L28.91,55.49a11,11,0,0,0-2.11,3l-.05.1-.09.2c-.09.19-.17.38-.24.57l-8.5,20.12a2,2,0,0,0,2.62,2.62L40.8,73.53a11,11,0,0,0,3.71-2.44L67.44,48.17a5.73,5.73,0,0,0,8-8L79,36.59A11,11,0,0,0,79,21ZM54.59,35.47,58.15,39,30.53,66.64a7.07,7.07,0,0,1-.4-5.82l.23-.55a7,7,0,0,1,1.37-2ZM26.93,68.4a11,11,0,0,0,4.67,4.67l-8.09,3.41Zm14.75-.14a7,7,0,0,1-2.26,1.51h0l-.11,0a7.06,7.06,0,0,1-5.94-.36L61,41.85l3.56,3.56ZM71.9,44.67a1.79,1.79,0,0,1-2.45,0L55.33,30.55a1.74,1.74,0,0,1,2.46-2.45l.67.67h0L71.23,41.55h0l.67.67a1.75,1.75,0,0,1,0,2.46Zm4.29-10.91L72.65,37.3,62.7,27.35l3.54-3.54a7,7,0,0,1,9.95,9.95Z"/>
</svg>
