<svg id="Layer_1" data-name="Layer 1" xmlns="http://www.w3.org/2000/svg" viewBox="0 0 100 100">
  <defs>
    <style>
      .cls-1 {
        fill: #5b5b5b;
      }
    </style>
  </defs>
  <title>material_reading</title>
  <path class="cls-1" d="M76.58,46.14h-5C70,41.47,68.11,36.33,67,33.27a8.66,8.66,0,0,0-7.72-5.38,6.62,6.62,0,0,0-6.62,6.62,2.62,2.62,0,1,1-5.23,0,6.33,6.33,0,0,0-6.62-6.62,8.38,8.38,0,0,0-7.53,5.2l-.06.15c-1.15,3.06-3.06,8.22-4.68,12.9H23.42a13,13,0,0,0,0,26H76.58a13,13,0,0,0,0-26ZM29.67,56.34A1.56,1.56,0,0,1,31.2,55H68.8a1.56,1.56,0,0,1,1.53,1.32,1.92,1.92,0,0,1-2,1.8H31.7A2,2,0,0,1,29.67,56.34Zm7.26-21.62a4.46,4.46,0,0,1,3.88-2.83,2.37,2.37,0,0,1,2.62,2.62,6.62,6.62,0,1,0,13.23,0,2.62,2.62,0,0,1,2.62-2.62,4.71,4.71,0,0,1,4,2.81c2.13,5.77,4.33,12,5.71,16.31H31.11C32.52,46.74,34.75,40.5,36.92,34.73ZM76.58,68.11H23.42a9,9,0,0,1,0-18h3.77a30.58,30.58,0,0,0-1.54,5.92c0,.09,0,.17,0,.25s0,.16,0,.25a5.56,5.56,0,0,0,5.56,5.56H68.8a5.56,5.56,0,0,0,5.56-5.56c0-.08,0-.16,0-.24s0-.17,0-.26a30.21,30.21,0,0,0-1.49-5.92h3.71a9,9,0,0,1,0,18Z"/>
</svg>
