<svg id="Layer_1" data-name="Layer 1" xmlns="http://www.w3.org/2000/svg" viewBox="0 0 100 100">
  <defs>
    <style>
      .cls-1 {
        fill: #5b5b5b;
      }
    </style>
  </defs>
  <title>material_think</title>
  <g>
    <path class="cls-1" d="M72,24.48A2.74,2.74,0,1,1,72,19a2,2,0,0,0,0-4H32.7A6.74,6.74,0,0,0,26,21.74V69.88a6.74,6.74,0,0,0,6.74,6.74h1v1.55a6.83,6.83,0,0,0,13.67,0V76.61H72a2,2,0,0,0,2-2V26.48A2,2,0,0,0,72,24.48ZM32.7,19H65.88a6.73,6.73,0,0,0,0,5.47H32.7a2.74,2.74,0,1,1,0-5.47ZM30,69.88v-42a6.69,6.69,0,0,0,2.74.59H70V72.61H32.7A2.74,2.74,0,0,1,30,69.88Zm13.41,8.29a2.83,2.83,0,0,1-5.67,0V76.61h5.67Z"/>
    <path class="cls-1" d="M41.51,43.74H59.22a2,2,0,1,0,0-4H41.51a2,2,0,0,0,0,4Z"/>
    <path class="cls-1" d="M41.51,51.06H59.22a2,2,0,0,0,0-4H41.51a2,2,0,0,0,0,4Z"/>
    <path class="cls-1" d="M41.51,58.57H59.22a2,2,0,0,0,0-4H41.51a2,2,0,0,0,0,4Z"/>
  </g>
</svg>
