<svg id="Layer_1" data-name="Layer 1" xmlns="http://www.w3.org/2000/svg" viewBox="0 0 100 100">
  <defs>
    <style>
      .cls-1 {
        fill: #5b5b5b;
      }
    </style>
  </defs>
  <title>meaterial_animation</title>
  <path class="cls-1" d="M78.12,45.24,35,20.34a5.5,5.5,0,0,0-8.25,4.76V74.9A5.49,5.49,0,0,0,35,79.66l43.13-24.9a5.5,5.5,0,0,0,0-9.53Zm-2,6.06L33,76.2a1.5,1.5,0,0,1-2.25-1.3V25.1a1.47,1.47,0,0,1,.75-1.3,1.54,1.54,0,0,1,.76-.21,1.47,1.47,0,0,1,.74.21L76.12,48.7a1.5,1.5,0,0,1,0,2.6Z"/>
</svg>
