<svg id="Layer_1" data-name="Layer 1" xmlns="http://www.w3.org/2000/svg" viewBox="0 0 100 100">
  <defs>
    <style>
      .cls-1 {
        fill: #515151;
      }
    </style>
  </defs>
  <title>ui_bookmark</title>
  <path class="cls-1" d="M67,19.64H33a4.82,4.82,0,0,0-4.81,4.81V76.88a4.81,4.81,0,0,0,8.22,3.4,2,2,0,0,0,.22-.26L49.45,61.77a.82.82,0,0,1,1,0l13,18.39a2,2,0,0,0,.22.26A4.81,4.81,0,0,0,71.85,77V24.46A4.82,4.82,0,0,0,67,19.64ZM67.85,77a.82.82,0,0,1-1.3.66l-13-18.39a2,2,0,0,0-.22-.26,4.81,4.81,0,0,0-6.81,0,2,2,0,0,0-.22.26L33.44,77.54a.82.82,0,0,1-1.29-.66V24.46a.82.82,0,0,1,.81-.81H67a.82.82,0,0,1,.81.81Z"/>
</svg>
