<svg id="Layer_1" data-name="Layer 1" xmlns="http://www.w3.org/2000/svg" viewBox="0 0 100 100">
  <defs>
    <style>
      .cls-1 {
        fill: #515151;
      }
    </style>
  </defs>
  <title>ui_classesamount</title>
  <g>
    <path class="cls-1" d="M37,51.32H20.49A11.67,11.67,0,0,0,8.84,63v8A11.67,11.67,0,0,0,20.49,82.67H37A11.67,11.67,0,0,0,48.63,71V63A11.67,11.67,0,0,0,37,51.32ZM44.63,63v8A7.66,7.66,0,0,1,37,78.67H20.49A7.66,7.66,0,0,1,12.84,71V63a7.66,7.66,0,0,1,7.66-7.66H37A7.66,7.66,0,0,1,44.63,63Z"/>
    <path class="cls-1" d="M79.51,51.32H63A11.67,11.67,0,0,0,51.37,63v8A11.67,11.67,0,0,0,63,82.67H79.51A11.67,11.67,0,0,0,91.16,71V63A11.67,11.67,0,0,0,79.51,51.32ZM87.16,63v8a7.66,7.66,0,0,1-7.66,7.66H63A7.66,7.66,0,0,1,55.37,71V63A7.66,7.66,0,0,1,63,55.32H79.51A7.66,7.66,0,0,1,87.16,63Z"/>
    <path class="cls-1" d="M41.26,49.36H57.74A11.67,11.67,0,0,0,69.39,37.7v-8A11.67,11.67,0,0,0,57.74,18H41.26A11.67,11.67,0,0,0,29.6,29.67v8A11.67,11.67,0,0,0,41.26,49.36ZM33.6,37.7v-8A7.66,7.66,0,0,1,41.26,22H57.74a7.66,7.66,0,0,1,7.66,7.66v8a7.66,7.66,0,0,1-7.66,7.66H41.26A7.66,7.66,0,0,1,33.6,37.7Z"/>
  </g>
</svg>
