<svg id="Layer_1" data-name="Layer 1" xmlns="http://www.w3.org/2000/svg" viewBox="0 0 100 100">
  <defs>
    <style>
      .cls-1 {
        fill: #5b5b5b;
      }
    </style>
  </defs>
  <title>ui_expand_open</title>
  <g>
    <path class="cls-1" d="M83.26,36.87a2,2,0,0,0-2.81.31L71.93,47.8a35.07,35.07,0,0,0-7.45-4.7l4.25-12.31a2,2,0,0,0-3.78-1.3L60.76,41.63a35.22,35.22,0,0,0-9.4-1.77V27.18a2,2,0,1,0-4,0V39.87a35.31,35.31,0,0,0-9.07,1.77L34.05,29.36a2,2,0,1,0-3.78,1.3l4.3,12.46a34.78,34.78,0,0,0-7.39,4.69L18.55,37.06a2,2,0,1,0-3.12,2.5l8.81,11a35.75,35.75,0,0,0-4.73,6.11,2.28,2.28,0,0,0-.29,1.12,2,2,0,0,0,.33,1.1A35.23,35.23,0,0,0,79.08,58a2.28,2.28,0,0,0,.29-1.12,2,2,0,0,0-.33-1.1,35.53,35.53,0,0,0-4.17-5.21l8.69-10.84A2,2,0,0,0,83.26,36.87ZM75,56.9a31.23,31.23,0,0,1-51.42.81A31.23,31.23,0,0,1,75,56.9Z"/>
    <path class="cls-1" d="M49.3,46a11.3,11.3,0,1,0,11.3,11.3A11.32,11.32,0,0,0,49.3,46Zm0,18.61a7.3,7.3,0,1,1,7.3-7.3A7.31,7.31,0,0,1,49.3,64.57Z"/>
  </g>
</svg>
