<svg id="Layer_1" data-name="Layer 1" xmlns="http://www.w3.org/2000/svg" viewBox="0 0 100 100">
  <defs>
    <style>
      .cls-1 {
        fill: #5b5b5b;
      }
    </style>
  </defs>
  <title>ui_expand_closed</title>
  <path class="cls-1" d="M84,58.21l-8.81-11a35.76,35.76,0,0,0,4.73-6.11,2,2,0,0,0,.29-1V40a2,2,0,0,0-2-2,2,2,0,0,0-1.77,1.1,31.23,31.23,0,0,1-52.54,1A2,2,0,0,0,22,38.9a2,2,0,0,0-2,2,2,2,0,0,0,.33,1.1,35.54,35.54,0,0,0,4.17,5.21L15.85,58.08A2,2,0,0,0,19,60.58L27.49,50a35.08,35.08,0,0,0,7.45,4.7L30.69,67a2,2,0,1,0,3.78,1.3l4.19-12.14a35.22,35.22,0,0,0,9.4,1.77V70.58a2,2,0,0,0,4,0V57.89a35.3,35.3,0,0,0,9.08-1.77L65.37,68.4a2,2,0,1,0,3.78-1.3l-4.3-12.46a34.79,34.79,0,0,0,7.39-4.69l8.63,10.76A2,2,0,1,0,84,58.21Z"/>
</svg>
