<svg id="Layer_1" data-name="Layer 1" xmlns="http://www.w3.org/2000/svg" viewBox="0 0 100 100">
  <defs>
    <style>
      .cls-1 {
        fill: #5b5b5b;
      }
    </style>
  </defs>
  <title>ui_lock</title>
  <g>
    <path class="cls-1" d="M69.61,41.84h-.36V31a19.25,19.25,0,0,0-38.5,0V41.84h-.36A12.55,12.55,0,0,0,17.85,54.38V75.71A12.55,12.55,0,0,0,30.39,88.24H69.61A12.55,12.55,0,0,0,82.15,75.71V54.38A12.55,12.55,0,0,0,69.61,41.84ZM34.75,31a15.25,15.25,0,0,1,30.5,0V41.84H34.75Zm43.4,44.7a8.55,8.55,0,0,1-8.54,8.54H30.39a8.55,8.55,0,0,1-8.54-8.54V54.38a8.55,8.55,0,0,1,8.54-8.54H69.61a8.55,8.55,0,0,1,8.54,8.54Z"/>
    <path class="cls-1" d="M50,54.7A10.48,10.48,0,1,0,60.48,65.17,10.49,10.49,0,0,0,50,54.7Zm0,17a6.48,6.48,0,1,1,6.48-6.48A6.48,6.48,0,0,1,50,71.65Z"/>
  </g>
</svg>
