<svg id="Layer_1" data-name="Layer 1" xmlns="http://www.w3.org/2000/svg" viewBox="0 0 100 100">
  <defs>
    <style>
      .cls-1 {
        fill: #5b5b5b;
      }
    </style>
  </defs>
  <title>ui_options</title>
  <g>
    <path class="cls-1" d="M50,32.41A10.48,10.48,0,1,0,39.52,21.93,10.49,10.49,0,0,0,50,32.41Zm0-17a6.48,6.48,0,1,1-6.48,6.48A6.48,6.48,0,0,1,50,15.46Z"/>
    <path class="cls-1" d="M50,39.93A10.48,10.48,0,1,0,60.48,50.41,10.49,10.49,0,0,0,50,39.93Zm0,17a6.48,6.48,0,1,1,6.48-6.48A6.48,6.48,0,0,1,50,56.89Z"/>
    <path class="cls-1" d="M50,68.27A10.48,10.48,0,1,0,60.48,78.75,10.49,10.49,0,0,0,50,68.27Zm0,17a6.48,6.48,0,1,1,6.48-6.48A6.48,6.48,0,0,1,50,85.23Z"/>
  </g>
</svg>
