<svg id="Layer_1" data-name="Layer 1" xmlns="http://www.w3.org/2000/svg" viewBox="0 0 100 100">
  <defs>
    <style>
      .cls-1 {
        fill: #515151;
      }
    </style>
  </defs>
  <title>ui_parts</title>
  <path class="cls-1" d="M81,17.61H65.77a6.12,6.12,0,0,0-6.12,6.12V37.2a1.29,1.29,0,0,1-1.29,1.29H44.57a6.12,6.12,0,0,0-6.12,6.12V57.78a1.29,1.29,0,0,1-1.29,1.29h-14A6.12,6.12,0,0,0,17,65.19V80.39a2,2,0,0,0,4,0V65.19a2.12,2.12,0,0,1,2.12-2.12h14a5.3,5.3,0,0,0,5.29-5.29V44.61a2.12,2.12,0,0,1,2.12-2.12H58.36a5.3,5.3,0,0,0,5.29-5.29V23.72a2.12,2.12,0,0,1,2.12-2.12H81a2,2,0,0,0,0-4Z"/>
</svg>
