<svg id="Layer_1" data-name="Layer 1" xmlns="http://www.w3.org/2000/svg" viewBox="0 0 100 100">
  <defs>
    <style>
      .cls-1 {
        fill: #5b5b5b;
      }
    </style>
  </defs>
  <title>ui_play</title>
  <g>
    <path class="cls-1" d="M50,15.25A34.75,34.75,0,1,0,84.75,50,34.79,34.79,0,0,0,50,15.25Zm0,65.5A30.75,30.75,0,1,1,80.75,50,30.78,30.78,0,0,1,50,80.75Z"/>
    <path class="cls-1" d="M63.31,46.32h0L44.69,35.57a4.25,4.25,0,0,0-6.37,3.68V60.75a4.24,4.24,0,0,0,6.37,3.68L63.31,53.68a4.25,4.25,0,0,0,0-7.36Zm-2,3.9L42.69,61a.25.25,0,0,1-.37-.22V39.25a.23.23,0,0,1,.13-.22.26.26,0,0,1,.13,0,.23.23,0,0,1,.12,0L61.3,49.78a.25.25,0,0,1,0,.43Z"/>
  </g>
</svg>
