<svg id="Layer_1" data-name="Layer 1" xmlns="http://www.w3.org/2000/svg" viewBox="0 0 100 100">
  <defs>
    <style>
      .cls-1 {
        fill: #515151;
      }
    </style>
  </defs>
  <title>ui_stopwatch</title>
  <g>
    <path class="cls-1" d="M50,15.25A34.75,34.75,0,1,0,84.75,50,34.79,34.79,0,0,0,50,15.25Zm0,49.69a30.61,30.61,0,0,1,20.56,7.89,30.67,30.67,0,0,1-41.13,0A30.6,30.6,0,0,1,50,64.94Zm0-4a34.58,34.58,0,0,0-23.36,9,30.75,30.75,0,1,1,46.71,0A34.58,34.58,0,0,0,50,60.94Z"/>
    <path class="cls-1" d="M66.74,48H56.06A6.4,6.4,0,0,0,52,43.94V26.26a2,2,0,1,0-4,0V43.94A6.39,6.39,0,1,0,56.06,52H66.74a2,2,0,0,0,0-4ZM50,52.39A2.39,2.39,0,1,1,52.39,50,2.4,2.4,0,0,1,50,52.39Z"/>
  </g>
</svg>
