<?xml version="1.0" encoding="UTF-8" standalone="no"?>
<svg
   xmlns:dc="http://purl.org/dc/elements/1.1/"
   xmlns:cc="http://creativecommons.org/ns#"
   xmlns:rdf="http://www.w3.org/1999/02/22-rdf-syntax-ns#"
   xmlns:svg="http://www.w3.org/2000/svg"
   xmlns="http://www.w3.org/2000/svg"
   height="81.274384"
   width="455.95999"
   id="svg41"
   version="1.1"
   viewBox="0 0 455.95997 81.274385">
  <metadata
     id="metadata45">
    <rdf:RDF>
      <cc:Work
         rdf:about="">
        <dc:format>image/svg+xml</dc:format>
        <dc:type
           rdf:resource="http://purl.org/dc/dcmitype/StillImage" />
        <dc:title>memocate_logo</dc:title>
      </cc:Work>
    </rdf:RDF>
  </metadata>
  <defs
     id="defs4">
    <style
       id="style2">
      .cls-1 {
        fill: #ffb135;
      }
    </style>
  </defs>
  <title
     id="title6">memocate_logo</title>
  <g
     transform="translate(-81.429997,-61.2)"
     id="memocate">
    <g
       id="logo">
      <path
         style="fill:#ffb135"
         id="path8"
         d="m 295.19,89.56 a 26.38,26.38 0 1 0 26.38,26.38 26.38,26.38 0 0 0 -26.38,-26.38 z m 0,42.64 a 16.26,16.26 0 1 1 16.26,-16.26 16.26,16.26 0 0 1 -16.26,16.26 z"
         class="cls-1" />
      <g
         id="g14">
        <path
           style="fill:#ffb135"
           id="path10"
           d="m 401.56,89.6 a 26.38,26.38 0 1 0 16.26,47.15 v 0.55 a 5.06,5.06 0 0 0 5.05,5.06 v 0 a 5.05,5.05 0 0 0 5.05,-5.05 V 115.62 A 26.37,26.37 0 0 0 401.56,89.6 Z m 1.66,42.56 a 16.26,16.26 0 1 1 14.52,-14.52 16.27,16.27 0 0 1 -14.52,14.52 z"
           class="cls-1" />
        <path
           style="fill:#ffb135"
           id="path12"
           d="m 427.93,115 v 0.61 c 0,0.12 0,0.24 0,0.36 z"
           class="cls-1" />
      </g>
      <path
         style="fill:#ffb135"
         id="path16"
         d="m 194.71,120.06 a 4.12,4.12 0 0 0 4.15,-4 v 0 a 26.38,26.38 0 1 0 -26.38,26.38 v 0 a 5.04,5.04 0 1 0 0,-10.08 v 0 a 16.27,16.27 0 0 1 -15.74,-12.17 v 0 m 0.63,-10.11 a 16.27,16.27 0 0 1 30.22,0 h -30.21 z"
         class="cls-1" />
      <path
         style="fill:#ffb135"
         id="path18"
         d="m 514.1,120.1 a 4.12,4.12 0 0 0 4.15,-4 v 0 a 26.38,26.38 0 1 0 -26.76,26.37 5.23,5.23 0 0 0 5.41,-4.63 5,5 0 0 0 -5,-5.45 v 0 a 16.27,16.27 0 0 1 -15.74,-12.17 v 0 m 0.63,-10.11 A 16.27,16.27 0 0 1 507,110 h -30.24 z"
         class="cls-1" />
      <path
         style="fill:#ffb135"
         id="path20"
         d="m 459.38,132.31 v 0 0 A 16.26,16.26 0 0 1 443.11,116 v -14.48 h 16.27 a 5.055,5.055 0 0 0 0,-10.11 h -16.27 v -25.17 0 a 5.04,5.04 0 0 0 -10.08,0 V 116 a 26.38,26.38 0 0 0 26.38,26.38 5.04,5.04 0 1 0 0,-10.08 z"
         class="cls-1" />
      <g
         id="g26">
        <path
           style="fill:#ffb135"
           id="path22"
           d="m 370.7,96.43 a 5,5 0 0 0 -0.49,-0.43 26.38,26.38 0 1 0 1.13,38.92 5,5 0 0 0 0.4,-7.39 5,5 0 0 0 -7,-0.07 v 0 a 16.26,16.26 0 1 1 -1.12,-24 v 0 a 5,5 0 0 0 7,-7 v 0 z"
           class="cls-1" />
        <polygon
           style="fill:#ffb135"
           id="polygon24"
           points="363.66,103.49 363.67,103.49 "
           class="cls-1" />
      </g>
      <path
         style="fill:#ffb135"
         id="path28"
         d="M 141.27,134.74 V 107.47 A 17.48,17.48 0 0 0 111.35,95.18 17.48,17.48 0 0 0 81.43,107.47 v 27.29 a 5.055,5.055 0 0 0 10.11,0 v -27.29 a 7.38,7.38 0 1 1 14.76,0 v 27.29 a 5.055,5.055 0 1 0 10.11,0 v -27.29 a 7.38,7.38 0 0 1 14.76,0 v 27.29 0 a 5.055,5.055 0 1 0 10.11,0 z"
         class="cls-1" />
      <path
         style="fill:#ffb135"
         id="path30"
         d="m 263.76,134.72 v -27.26 a 17.48,17.48 0 0 0 -29.92,-12.29 17.48,17.48 0 0 0 -29.92,12.29 v 27.29 a 5.055,5.055 0 1 0 10.11,0 v -27.29 a 7.38,7.38 0 1 1 14.76,0 v 27.29 a 5.055,5.055 0 1 0 10.11,0 v -27.29 a 7.38,7.38 0 0 1 14.76,0 v 27.29 0 a 5.055,5.055 0 1 0 10.11,0 z"
         class="cls-1" />
    </g>
  </g>
  <g
     transform="translate(-81.429997,-61.2)"
     id="brain">
    <g
       id="g38">
      <path
         style="fill:#ffb135"
         id="path34"
         d="M 521.19,91.41 H 518 v -1.26 h 7.73 v 1.26 h -3.19 v 8.65 h -1.34 z"
         class="cls-1" />
      <path
         style="fill:#ffb135"
         id="path36"
         d="m 527.06,90.15 h 2 l 3.15,7.5 h 0.06 l 3.12,-7.5 h 2 v 9.91 H 536 v -8.15 0 l -3.35,8.15 h -0.9 l -3.35,-8.15 v 0 8.15 h -1.34 z"
         class="cls-1" />
    </g>
  </g>
</svg>
